<?xml version="1.0" ?><!DOCTYPE svg  PUBLIC '-//W3C//DTD SVG 1.1//EN'  'http://www.w3.org/Graphics/SVG/1.1/DTD/svg11.dtd'><svg height="512px" style="enable-background:new 0 0 512 512;" version="1.1" viewBox="0 0 512 512" width="512px" xml:space="preserve" xmlns="http://www.w3.org/2000/svg" xmlns:xlink="http://www.w3.org/1999/xlink"><g id="_x31_9_x2C__Microsoft_x2C__Movies_Tv"><g><circle cx="251" cy="266" r="175" style="fill:#9BC9FF;"/><circle cx="431" cy="86" r="35" style="fill:#9BC9FF;"/><path d="M81,411c13.81,0,25,11.19,25,25s-11.19,25-25,25s-25-11.19-25-25S67.19,411,81,411z" style="fill:#9BC9FF;"/><path d="M351,271v69c0,14.36-11.641,26-26,26H177c-14.36,0-26-11.64-26-26v-69H351z" style="fill:#FFFFFF;"/><rect height="35" style="fill:#FFFFFF;" width="200" x="151" y="236"/><polygon points="346,151 346,191 151,236 151,196   " style="fill:#FFFFFF;"/><circle cx="453.5" cy="163.5" r="7.5" style="fill:#1E81CE;"/><circle cx="443.5" cy="378.5" r="7.5" style="fill:#1E81CE;"/><circle cx="348.5" cy="458.5" r="7.5" style="fill:#1E81CE;"/><circle cx="323.5" cy="58.5" r="7.5" style="fill:#1E81CE;"/><circle cx="113.5" cy="63.5" r="7.5" style="fill:#1E81CE;"/><circle cx="58.5" cy="348.5" r="7.5" style="fill:#1E81CE;"/><circle cx="48.5" cy="188.5" r="7.5" style="fill:#1E81CE;"/><path d="M251,446c-99.252,0-180-80.748-180-180c0-99.252,80.748-180,180-180c99.252,0,180,80.748,180,180    C431,365.252,350.252,446,251,446z M251,96c-93.738,0-170,76.262-170,170s76.262,170,170,170s170-76.262,170-170    S344.738,96,251,96z" style="fill:#1E81CE;"/><path d="M81,466c-16.542,0-30-13.458-30-30s13.458-30,30-30s30,13.458,30,30S97.542,466,81,466z M81,416    c-11.028,0-20,8.972-20,20s8.972,20,20,20s20-8.972,20-20S92.028,416,81,416z" style="fill:#1E81CE;"/><path d="M431,126c-22.057,0-40-17.944-40-40s17.943-40,40-40s40,17.944,40,40S453.057,126,431,126z M431,56    c-16.542,0-30,13.458-30,30s13.458,30,30,30s30-13.458,30-30S447.542,56,431,56z" style="fill:#1E81CE;"/><path d="M325,371H177c-17.093,0-31-13.906-31-31V236c0-2.761,2.239-5,5-5h200c2.762,0,5,2.239,5,5v104    C356,357.094,342.094,371,325,371z M156,241v99c0,11.579,9.42,21,21,21h148c11.58,0,21-9.421,21-21v-99H156z" style="fill:#1E81CE;"/><path d="M151,241c-1.12,0-2.219-0.376-3.113-1.087C146.695,238.964,146,237.524,146,236v-40    c0-2.328,1.607-4.349,3.875-4.872l195-45c1.486-0.342,3.045,0.011,4.238,0.959c1.191,0.949,1.887,2.389,1.887,3.913v40    c0,2.328-1.607,4.349-3.875,4.872l-195,45C151.752,240.958,151.375,241,151,241z M156,199.978v29.737l185-42.692v-29.737    L156,199.978z" style="fill:#1E81CE;"/><path d="M351,276H151c-2.761,0-5-2.238-5-5s2.239-5,5-5h200c2.762,0,5,2.238,5,5S353.762,276,351,276z" style="fill:#1E81CE;"/></g></g><g id="Layer_1"/></svg>